<svg xmlns="http://www.w3.org/2000/svg" viewBox="0 0 64 64" role="img" aria-label="WhatsApp">
  <circle cx="32" cy="32" r="32" fill="#25D366"/>
  <path fill="#fff" d="M32 12c-11 0-20 9-20 20.1 0 3.5.9 7 2.7 10.1L12 52l10.2-2.7c3 1.6 6.3 2.5 9.8 2.5h.1c11 0 20-9 20-20.1S43 12 32 12zm0 36.5h-.1c-2.9 0-5.7-.8-8.2-2.2l-.6-.3-6 1.6 1.6-5.8-.4-.6c-1.5-2.4-2.3-5.2-2.3-8.1C16 22.8 23.2 16 32 16s16 6.8 16 15.2-7.2 17.3-16 17.3zm8.8-12.9c-.5-.2-2.9-1.4-3.3-1.6-.4-.2-.7-.2-1 .2s-1.2 1.6-1.4 1.9c-.3.3-.5.3-1 .1-2.9-1.5-4.8-2.7-6.7-6.1-.5-.9.5-.8 1.4-2.7.2-.4 0-.8-.1-1.1-.1-.2-1-2.5-1.4-3.4-.4-.9-.8-.8-1-.8h-.9c-.3 0-.8.1-1.2.6-.4.5-1.6 1.6-1.6 3.8s1.6 4.4 1.9 4.7c.2.3 3.2 4.9 7.8 6.9 1.1.5 2 .7 2.7.9 1.1.4 2.2.3 3 .2.9-.1 2.9-1.2 3.3-2.3.4-1.1.4-2.1.3-2.3-.1-.2-.4-.3-.9-.5z"/>
</svg>
